<?xml version="1.0" encoding="utf-8"?>
<!-- Generator: Adobe Illustrator 17.0.0, SVG Export Plug-In . SVG Version: 6.00 Build 0)  -->
<!DOCTYPE svg PUBLIC "-//W3C//DTD SVG 1.1//EN" "http://www.w3.org/Graphics/SVG/1.1/DTD/svg11.dtd">
<svg version="1.1" id="图层_1" xmlns="http://www.w3.org/2000/svg" xmlns:xlink="http://www.w3.org/1999/xlink" x="0px" y="0px"
	 width="450.001px" height="270px" viewBox="0 0 450.001 270" enable-background="new 0 0 450.001 270" xml:space="preserve">
<g>
	<g>
		<g>
			<path d="M98.942,125.826c1.479,1.342,3.605,2.543,5.64,2.543c1.479,0,3.144-0.646,3.144-2.403c0-1.941-2.265-2.266-4.808-3.374
				c-2.866-1.248-5.27-2.774-5.27-6.426c0-4.762,3.837-6.795,8.598-6.795c2.589,0,5.362,0.601,7.35,1.895v0.555l-1.849,3.652
				c-1.294-0.971-3.051-1.618-4.993-1.618c-1.71,0-2.773,0.693-2.773,2.034c0,1.757,2.034,2.126,4.577,3.097
				c3.513,1.341,5.639,2.82,5.639,6.564c0,4.9-3.837,7.025-8.921,7.025c-3.236,0-5.824-0.878-8.274-2.727v-0.555L98.942,125.826z"/>
			<path d="M127.645,132.575c-7.535,0-10.585-5.223-10.585-11.74c0-6.426,2.819-11.464,10.262-11.464
				c7.165,0,9.707,4.622,9.707,10.632c0,0.692-0.185,1.94-0.462,2.681c-1.756,0-12.527-0.092-12.989-0.092
				c0.046,2.45,1.109,5.685,4.808,5.685c1.896,0,3.467-0.97,4.854-2.45l2.634,2.959v0.556
				C133.655,131.281,131.066,132.575,127.645,132.575z M127.322,113.9c-2.265,0-3.56,1.757-3.698,5.409
				c0.508,0,6.934-0.139,7.165-0.139C130.789,115.704,129.772,113.9,127.322,113.9z"/>
			<path d="M160.509,114.178v18.721c0,6.379-4.808,9.061-10.077,9.061c-2.959,0-6.148-0.786-8.645-2.266l1.664-4.113h0.555
				c1.664,1.108,3.744,1.849,5.732,1.849c2.727,0,4.253-1.387,4.253-3.79c0-0.37,0.139-2.497,0.231-3.791l-0.185-0.092
				c-1.572,1.433-3.467,2.772-6.056,2.772c-6.333,0-7.858-5.777-7.858-11.694c0-5.778,2.357-11.464,7.997-11.464
				c2.496,0,4.484,1.109,6.148,2.635l0.139-0.092l0.462-1.618l0.508-0.463l5.27,0.139
				C160.601,110.433,160.509,112.792,160.509,114.178z M154.037,116.027c-1.017-1.155-2.404-1.849-3.652-1.849
				c-3.097,0-3.467,4.16-3.467,6.656c0,2.727,0.139,7.304,3.051,7.304c1.294,0,2.912-1.063,3.975-2.404
				C153.945,125.272,154.037,116.535,154.037,116.027z"/>
			<path d="M189.628,131.974c0-0.416,0.185-14.145,0.185-14.561c0-2.312-0.601-3.19-2.034-3.19c-1.063,0-2.542,0.601-3.698,1.525
				c0,0.463,0,15.763,0,16.225h-6.379c0-0.416,0.093-14.145,0.093-14.561c0-2.312-0.555-3.19-1.896-3.19
				c-1.109,0-2.635,0.648-3.791,1.571l0.046,16.179h-6.564v-16.317c0-1.571-0.092-4.715-0.139-5.686l5.455-0.139l0.509,0.463
				l0.324,1.802l0.092,0.047c1.988-1.618,4.761-2.728,7.119-2.728c1.849,0,3.605,0.832,4.484,2.819
				c2.265-1.756,5.177-2.819,7.535-2.819c3.005,0,5.362,1.849,5.362,6.563c0,0.463-0.139,15.532-0.139,15.994H189.628z"/>
			<path d="M210.979,132.575c-7.535,0-10.586-5.223-10.586-11.74c0-6.426,2.82-11.464,10.262-11.464
				c7.165,0,9.707,4.622,9.707,10.632c0,0.692-0.185,1.94-0.462,2.681c-1.756,0-12.527-0.092-12.989-0.092
				c0.046,2.45,1.109,5.685,4.808,5.685c1.895,0,3.467-0.97,4.854-2.45l2.635,2.959v0.556
				C216.989,131.281,214.4,132.575,210.979,132.575z M210.656,113.9c-2.265,0-3.559,1.757-3.698,5.409
				c0.508,0,6.934-0.139,7.165-0.139C214.122,115.704,213.105,113.9,210.656,113.9z"/>
			<path d="M236.816,131.974c0-0.416,0.185-14.145,0.185-14.561c0-2.357-0.555-3.19-2.126-3.19c-1.155,0-2.82,0.739-4.068,1.571
				l0.046,16.179h-6.564v-16.317c0-1.617-0.092-4.715-0.139-5.686l5.454-0.139l0.509,0.463l0.324,1.802l0.092,0.047
				c2.08-1.526,5.085-2.728,7.535-2.728c3.097,0,5.455,1.849,5.455,6.563c0,0.463-0.139,15.532-0.139,15.994H236.816z"/>
			<path d="M255.858,131.974c-5.778,0-6.194-3.328-6.194-6.564c0-0.462,0-6.471,0.094-10.815c-1.434,0.046-2.358,0.046-2.82,0.046
				l0.046-4.669c0.462,0,1.341,0,2.774,0.046c-0.047-2.542-0.094-5.824-0.094-6.24l0.463-0.462h6.102c0,0.416,0,3.189-0.092,6.702
				c1.618-0.046,3.79-0.046,4.252-0.046l-0.092,4.669c-0.463,0-2.542,0-4.16-0.046c0.046,4.206,0.046,9.615,0.046,10.031
				c0,2.311,0.046,2.772,2.08,2.772h1.803l0.092,4.114l-0.462,0.462H255.858z"/>
		</g>
		<g>
			<path fill="#009A5B" d="M267.77,131.974c0-0.462,0.093-13.035,0.139-17.38c-1.248,0.046-2.542,0.046-2.912,0.046l0.047-4.669
				c0.369,0,1.617,0,2.819,0.046c0-0.185-0.093-4.021-0.093-4.16c0-5.224,3.051-7.165,7.027-7.165c1.709,0,3.466,0.277,5.222,1.018
				v0.692l-1.34,3.698c-0.739-0.416-1.571-0.647-2.312-0.647c-1.294,0-2.126,0.647-2.126,3.097c0,0.832,0.046,3.282,0.046,3.467
				c1.387-0.046,4.022-0.046,4.392-0.046l-0.045,4.669c-0.371,0-3.005,0-4.393-0.046c0.093,4.345,0.093,16.918,0.093,17.38H267.77z"
				/>
			<path fill="#009A5B" d="M295.041,131.974l-0.463-0.462l-0.554-1.756l-0.186-0.047c-1.988,1.803-4.206,2.865-6.934,2.865
				c-4.945,0-5.825-4.252-5.825-6.749c0-7.117,6.102-7.533,12.482-7.903v-1.434c0-2.033-1.34-2.543-2.958-2.543
				c-2.866,0-5.502,0.926-7.073,1.526l-1.434-3.698v-0.555c4.208-1.525,7.859-1.849,10.401-1.849c4.577,0,7.581,1.895,7.581,6.842
				v10.445c0,1.804,0.093,4.393,0.14,5.316H295.041z M293.609,121.389c-4.347,0.092-6.241,0.138-6.241,3.604
				c0,1.618,0.416,3.145,2.173,3.145c1.109,0,2.635-0.601,4.022-2.034c0-0.278,0.093-4.392,0.093-4.669L293.609,121.389z"/>
			<path fill="#009A5B" d="M319.399,131.974l-0.462-0.462l-0.555-1.849l-0.185-0.047c-2.449,2.312-4.993,2.958-7.535,2.958
				c-3.375,0-5.824-1.849-5.824-6.563c0-0.462,0.139-15.578,0.139-16.04h6.102l0.462,0.462c0,0.509-0.139,13.776-0.139,14.376
				c0,1.665,0.555,3.236,2.219,3.236c1.388,0,3.236-0.924,4.345-2.08l-0.092-15.994h6.103l0.462,0.462v16.225
				c0,1.804,0.093,4.393,0.139,5.316H319.399z"/>
			<path fill="#009A5B" d="M335.99,126.658c0,1.758,0.093,4.393,0.185,5.316h-6.564c-0.092-0.924-0.185-3.559-0.185-5.316v-21.863
				c0-1.757-0.046-4.393-0.138-5.316l6.239-0.185l0.463,0.462V126.658z"/>
			<path fill="#009A5B" d="M348.47,131.974c-5.777,0-6.193-3.328-6.193-6.564c0-0.462,0-6.471,0.093-10.815
				c-1.434,0.046-2.358,0.046-2.82,0.046l0.046-4.669c0.462,0,1.341,0,2.774,0.046c-0.048-2.542-0.093-5.824-0.093-6.24l0.461-0.462
				h6.103c0,0.416,0,3.189-0.093,6.702c1.619-0.046,3.791-0.046,4.253-0.046l-0.093,4.669c-0.461,0-2.541,0-4.16-0.046
				c0.047,4.206,0.047,9.615,0.047,10.031c0,2.311,0.046,2.772,2.08,2.772h1.803l0.092,4.114l-0.462,0.462H348.47z"/>
		</g>
	</g>
	<g>
		<path fill="#898989" d="M107.111,161.311c-1.625-2.117-1.625-2.117-2.891-3.496c-0.945-1.021-1.474-1.587-1.625-1.739
			c-1.304,2.609-2.702,4.309-4.8,5.84c-0.245-0.472-0.415-0.699-0.794-1.021c1.55-1.039,2.646-2.098,3.553-3.458
			c0.662-1.002,1.153-2.041,1.568-3.365l1.266,0.283c-0.113,0.284-0.227,0.492-0.283,0.624c-0.038,0.113-0.057,0.133-0.075,0.189
			c0.264,0.265,0.415,0.396,0.567,0.548c1.606,1.493,2.438,2.343,4.517,4.668L107.111,161.311z M104.484,160.895
			c0.643,0,1.002-0.019,1.455-0.076c-0.038,0.321-0.076,0.964-0.132,2.4c-0.019,0.718-0.113,1.474-0.208,1.965
			c-0.189,1.04-0.624,1.323-1.947,1.323c-0.34,0-0.794-0.038-1.323-0.114c-0.018-0.416-0.056-0.643-0.208-1.133
			c0.737,0.132,1.078,0.17,1.531,0.17c0.851,0,0.983-0.435,1.039-3.515h-4.309v6.936c0,0.34,0.056,0.492,0.208,0.586
			c0.151,0.075,0.283,0.113,0.68,0.151c0.416,0.038,1.285,0.076,1.568,0.076c1.455,0,2.589-0.132,2.816-0.359
			c0.34-0.283,0.454-0.85,0.529-2.495c0.302,0.208,0.643,0.359,1.21,0.53c-0.094,1.435-0.321,2.267-0.718,2.739
			c-0.264,0.321-0.567,0.473-1.133,0.568c-0.397,0.075-1.72,0.132-2.797,0.132c-1.625,0-2.381-0.076-2.91-0.303
			c-0.453-0.189-0.605-0.51-0.605-1.266v-6.898c0-0.586-0.019-1.04-0.056-1.494c0.397,0.057,0.718,0.076,1.304,0.076H104.484z
			 M110.021,155.623c-0.094,0.472-0.113,1.001-0.113,2.06v7.238c0,1.284,0.019,1.624,0.094,2.116h-1.379
			c0.075-0.529,0.094-0.907,0.094-2.116v-7.238c0-1.002-0.038-1.549-0.113-2.06H110.021z M113.839,154.394
			c-0.094,0.53-0.132,1.209-0.132,2.286v12.738c0,1.324-0.416,1.663-1.985,1.663c-0.472,0-1.096-0.018-2.136-0.076
			c-0.094-0.547-0.151-0.756-0.34-1.21c1.021,0.132,1.739,0.189,2.419,0.189c0.699,0,0.832-0.095,0.832-0.585v-12.738
			c0-1.021-0.038-1.738-0.132-2.268H113.839z"/>
		<path fill="#898989" d="M126.692,162.596h-1.266c-0.643,0-0.945,0.018-1.379,0.094v-1.229c0.415,0.076,0.718,0.094,1.455,0.094
			h1.002c0.605,0,0.945-0.018,1.417-0.094c-0.075,0.567-0.094,1.059-0.094,1.909v4.195c0.113,0.094,0.208,0.208,0.378,0.416
			c0.681,0.775,1.134,1.115,1.928,1.361c0.718,0.227,2.287,0.34,4.611,0.34c2.74,0,4.857-0.113,6.501-0.34
			c-0.302,0.68-0.321,0.774-0.454,1.379c-1.833,0.094-3.874,0.132-6.501,0.132c-1.191,0-2.721-0.094-3.534-0.207
			c-0.869-0.114-1.55-0.359-2.211-0.813c-0.321-0.227-0.321-0.227-1.021-1.059c-0.151-0.169-0.359-0.283-0.529-0.283
			c-0.453,0-1.512,1.021-2.475,2.382l-0.832-0.964c0.832-0.888,1.55-1.587,1.984-1.89c0.491-0.359,0.775-0.529,1.021-0.623V162.596z
			 M125.237,154.583c1.285,1.173,2.06,2.023,3.08,3.365l-0.983,0.85c-1.021-1.493-1.72-2.306-2.967-3.458L125.237,154.583z
			 M131.209,157.871c-0.434,0.794-0.642,1.077-1.285,1.89c-0.283-0.283-0.529-0.435-1.002-0.643c1.077-1.21,1.72-2.268,2.211-3.629
			c0.133-0.397,0.189-0.605,0.246-0.964l1.229,0.359c-0.038,0.075-0.076,0.132-0.094,0.17c-0.113,0.226-0.113,0.226-0.321,0.774
			c-0.152,0.359-0.359,0.813-0.454,1.002h2.494v-0.662c0-0.983-0.019-1.473-0.113-1.946h1.36c-0.094,0.434-0.114,0.926-0.114,1.946
			v0.662h2.721c0.888,0,1.342-0.02,1.795-0.114v1.229c-0.51-0.057-0.983-0.076-1.776-0.076h-2.74v2.532h3.534
			c0.851,0,1.304-0.018,1.72-0.094v1.229c-0.567-0.056-1.096-0.094-1.72-0.094h-8.372c-0.605,0-1.153,0.038-1.682,0.094v-1.229
			c0.416,0.076,0.888,0.094,1.72,0.094h3.666v-2.532H131.209z M132.248,167.963c-0.85,0-1.285,0.018-1.89,0.094
			c0.056-0.434,0.075-0.699,0.075-1.814v-1.587c0-0.945-0.019-1.304-0.075-1.701c0.586,0.076,1.058,0.094,2.003,0.094h4.951
			c0.926,0,1.436-0.019,2.022-0.094c-0.057,0.454-0.075,0.737-0.075,1.834v1.436c0,1.115,0,1.36,0.075,1.833
			c-0.586-0.076-1.134-0.094-1.984-0.094H132.248z M131.568,166.904h6.52v-2.797h-6.52V166.904z"/>
		<path fill="#898989" d="M153.36,158.268c-0.094,4.517-0.283,6.822-0.737,8.863c-0.34,1.607-0.718,2.664-1.436,4.063
			c-0.359-0.472-0.605-0.699-0.983-0.963c1.493-2.608,2.003-6.029,2.003-13.342c0-1.059-0.019-1.549-0.094-2.154
			c0.718,0.056,1.285,0.075,2.305,0.075h9.959c0.945,0,1.436-0.019,1.984-0.075c-0.037,0.434-0.057,0.774-0.057,1.266v1.096
			c0,0.492,0.019,0.794,0.057,1.229c-0.586-0.038-1.096-0.056-1.89-0.056H153.36z M165.172,157.304v-1.512H153.36v1.512H165.172z
			 M160.542,168.152c0.794-0.076,1.625-0.189,2.249-0.302c-0.284-0.265-0.416-0.397-0.756-0.699l0.775-0.51
			c0.794,0.68,1.493,1.473,2.211,2.456l-0.831,0.624c-0.283-0.492-0.454-0.737-0.756-1.135c-0.416,0.076-0.491,0.094-1.19,0.208
			c-1.209,0.227-3.836,0.529-5.632,0.643c-0.378,0.018-0.567,0.056-0.756,0.094l-0.207-1.135c0.321,0.038,0.529,0.038,1.02,0.038
			c0.775,0,0.775,0,2.816-0.171v-1.776h-4.422v3.024c0,0.832,0.019,1.286,0.076,1.776h-1.323c0.075-0.605,0.094-1.152,0.094-1.889
			v-2.363c0-0.812-0.019-1.21-0.057-1.569c0.491,0.058,0.907,0.076,1.814,0.076h3.817v-1.133h-3.231c-0.813,0-1.04,0-1.512,0.057
			c0.038-0.435,0.057-0.699,0.057-1.135v-1.02c0-0.606,0-0.681-0.057-1.153c0.435,0.057,0.662,0.057,1.569,0.057h3.175v-1.133
			c-1.247,0.094-3.061,0.189-4.667,0.207c-0.132-0.378-0.227-0.567-0.473-0.945c0.51,0.018,0.964,0.018,1.191,0.018
			c3.269,0,7.37-0.416,8.806-0.87l0.813,0.87c-2.022,0.359-2.948,0.492-4.611,0.643v1.21h3.59c0.775,0,1.096-0.019,1.531-0.057
			c-0.056,0.472-0.056,0.547-0.056,1.172v1.001c0,0.605,0,0.757,0.056,1.135c-0.472-0.057-0.718-0.057-1.531-0.057h-3.59v1.133h4.46
			c0.85,0,1.304-0.018,1.814-0.076c-0.057,0.473-0.076,0.964-0.076,1.72v2.627c0,0.51-0.094,0.812-0.321,1.039
			c-0.265,0.265-0.605,0.34-1.531,0.34c-0.51,0-1.002-0.018-1.758-0.056c-0.038-0.434-0.094-0.68-0.226-1.096
			c0.794,0.113,1.379,0.151,2.079,0.151c0.491,0,0.624-0.114,0.624-0.529v-3.176h-5.065V168.152z M159.483,162.086h-3.59v1.455h3.59
			V162.086z M160.542,163.541h3.95v-1.455h-3.95V163.541z"/>
		<path fill="#898989" d="M186.321,161.103h5.027c0.869,0,1.682-0.058,2.211-0.133v1.436c-0.699-0.094-1.398-0.132-2.211-0.132
			h-5.027v7.199c0,1.305-0.359,1.55-2.211,1.55c-0.718,0-1.248-0.038-2.079-0.114c-0.057-0.491-0.151-0.907-0.302-1.304
			c1.002,0.152,1.909,0.246,2.57,0.246c0.624,0,0.737-0.076,0.737-0.568v-7.01h-5.594c-0.756,0-1.417,0.038-2.136,0.132v-1.436
			c0.813,0.095,1.323,0.133,2.136,0.133h5.594v-4.857H180.5c-0.926,0-1.493,0.02-2.022,0.094v-1.38
			c0.491,0.076,1.096,0.114,2.022,0.114h9.865c0.945,0,1.493-0.038,2.003-0.114v1.38c-0.529-0.056-1.115-0.094-2.003-0.094h-4.044
			V161.103z"/>
		<path fill="#898989" d="M215.446,161.727h2.702c0.832,0,1.455-0.038,1.966-0.114v1.38c-0.529-0.076-1.153-0.113-1.966-0.113
			h-2.702v5.726c0,1.001,0.038,1.568,0.132,2.249h-1.512c0.094-0.661,0.133-1.284,0.133-2.23v-5.744h-4.574
			c-0.056,1.833-0.397,3.269-1.039,4.479c-0.775,1.417-1.871,2.381-3.987,3.516c-0.265-0.473-0.51-0.795-0.87-1.115
			c3.402-1.607,4.555-3.308,4.687-6.879h-2.721c-0.775,0-1.361,0.037-1.928,0.113v-1.38c0.51,0.076,1.134,0.114,1.947,0.114h2.74
			c0-0.094,0-0.094,0-0.321v-4.517h-1.833c-0.832,0-1.417,0.038-1.947,0.113v-1.379c0.51,0.075,1.134,0.113,1.928,0.113h10.696
			c0.794,0,1.417-0.038,1.947-0.113v1.379c-0.548-0.075-1.096-0.113-1.947-0.113h-1.852V161.727z M209.664,156.889v4.573
			c0,0.227,0,0.227,0,0.265h4.536v-4.838H209.664z"/>
		<path fill="#898989" d="M244.476,162.01c-0.132,0.189-0.227,0.359-0.548,1.021c-0.813,1.625-1.814,3.062-2.986,4.252
			c1.776,1.267,3.534,2.061,6.028,2.722c-0.397,0.434-0.548,0.661-0.794,1.19c-2.4-0.812-4.385-1.814-6.123-3.118
			c-1.455,1.173-3.043,1.947-6.388,3.118c-0.208-0.491-0.359-0.718-0.756-1.152c1.682-0.454,3.307-1.059,4.498-1.682
			c0.586-0.303,1.04-0.586,1.682-1.078c-1.323-1.171-2.381-2.494-3.156-4.006c-0.397,1.077-0.945,2.174-1.701,3.327
			c-1.039,1.625-2.117,2.835-3.685,4.119c-0.246-0.434-0.491-0.718-0.926-1.077c1.171-0.794,1.739-1.304,2.665-2.4
			c1.776-2.099,2.835-4.536,3.496-8.052h-2.816c-1.021,0.058-1.644,0.094-1.852,0.094c0.851-2.022,1.172-3.08,1.474-4.951
			l1.304,0.189c-0.321,1.153-0.662,2.23-1.153,3.553h3.232c0.151-1.039,0.302-2.797,0.302-3.382c0-0.171,0-0.303-0.038-0.567
			l1.455,0.113c-0.094,0.34-0.094,0.34-0.189,1.097c-0.113,1.077-0.17,1.644-0.321,2.739h7.465c0.851,0,1.455-0.037,1.984-0.113
			v1.36c-0.434-0.075-1.002-0.113-1.984-0.113l-7.654-0.02c-0.132,0.832-0.227,1.267-0.453,2.136h5.575
			c0.832,0,1.285-0.019,1.682-0.094L244.476,162.01z M236.728,162.407c0.718,1.568,1.757,2.891,3.25,4.138
			c1.21-1.114,2.079-2.381,2.873-4.138H236.728z M244.061,157.626c-0.907-1.172-1.625-1.834-2.816-2.627l0.85-0.718
			c1.191,0.812,1.739,1.304,2.873,2.514L244.061,157.626z"/>
		<path fill="#898989" d="M266.287,159.969c2.117-1.587,4.044-3.609,4.763-5.008l1.115,0.737c-0.227,0.247-0.341,0.378-0.586,0.681
			c-1.059,1.285-1.909,2.116-3.666,3.59h3.1c0.964,0,1.511-0.038,2.022-0.113v1.304c-0.605-0.076-1.266-0.114-2.078-0.114h-4.46
			c-1.21,0.87-1.985,1.361-3.042,2.003c0.131,0,0.131,0,0.358-0.019c0.454,0,1.171-0.018,1.607-0.018h3.251
			c0.907,0,1.398-0.02,2.06-0.076c-0.076,0.548-0.076,0.983-0.076,2.079v4.233c0,0.944,0.02,1.435,0.095,1.946h-1.304v-0.888h-7.805
			v0.888h-1.323c0.076-0.567,0.113-1.095,0.113-1.946v-3.213c0-0.416,0-0.87,0.019-1.361c-0.907,0.492-2.136,1.04-3.704,1.682
			c-0.208-0.415-0.397-0.718-0.737-1.077c3.421-1.153,5.632-2.23,8.712-4.233h-6.104c-0.851,0-1.474,0.038-2.079,0.114v-1.304
			c0.453,0.075,1.039,0.113,2.098,0.113h4.762v-2.363h-3.042c-0.964,0-1.474,0.02-2.041,0.094v-1.246
			c0.454,0.075,1.04,0.113,2.06,0.113h3.023v-0.661c0-0.813-0.038-1.248-0.113-1.796h1.417c-0.094,0.472-0.113,0.946-0.113,1.796
			v0.661h1.758c1.001,0,1.587-0.038,2.078-0.113v1.246c-0.51-0.075-1.001-0.094-2.022-0.094h-1.814v2.363H266.287z M261.638,166.036
			h7.824v-2.004h-7.824V166.036z M261.638,169.285h7.824v-2.23h-7.824V169.285z"/>
		<path fill="#898989" d="M287.852,157.077c0.946-0.018,1.493-0.038,1.663-0.056c-0.038,0.491-0.056,0.983-0.056,1.663v9.618
			c0,0.851,0.038,1.493,0.094,1.947h-1.247v-1.21h-3.685v1.663h-1.266c0.075-0.492,0.095-1.191,0.095-2.306v-9.581
			c0-0.888-0.02-1.322-0.076-1.795c0.396,0.038,0.737,0.056,1.682,0.056h0.378c0.378-0.926,0.661-1.871,0.813-2.853l1.342,0.264
			c-0.341,1.021-0.681,1.966-0.964,2.589H287.852z M284.621,162.331h3.685v-4.215h-3.685V162.331z M284.621,167.981h3.685v-4.611
			h-3.685V167.981z M297.679,157.059c0.757,0,1.286-0.02,1.663-0.076c-0.056,0.34-0.056,0.492-0.075,1.191
			c-0.17,7.483-0.416,10.016-1.096,11.527c-0.378,0.87-0.983,1.21-2.116,1.21c-0.681,0-1.229-0.037-2.401-0.131
			c-0.038-0.548-0.114-0.87-0.321-1.342c1.153,0.227,2.003,0.321,2.684,0.321c0.699,0,0.945-0.171,1.19-0.775
			c0.321-0.87,0.568-2.684,0.699-5.216c0.094-1.512,0.114-2.816,0.132-5.594h-5.443c-0.643,1.304-1.19,2.173-2.174,3.439
			c-0.245-0.32-0.585-0.642-0.906-0.85c1.153-1.228,2.079-2.835,2.778-4.762c0.264-0.719,0.453-1.418,0.491-1.834l1.304,0.247
			c-0.056,0.113-0.151,0.378-0.264,0.718c-0.227,0.661-0.416,1.171-0.719,1.928H297.679z M294.675,165.96
			c-1.059-2.268-1.776-3.458-2.873-4.781l0.964-0.585c1.19,1.435,1.984,2.683,2.986,4.705L294.675,165.96z"/>
		<path fill="#898989" d="M309.646,157.342c0-0.757,0-1.059-0.056-1.814c0.396,0.037,0.926,0.056,1.72,0.056h2.041
			c0.812,0,1.284-0.02,1.719-0.056c-0.037,0.434-0.057,0.888-0.057,1.757v10.507c0,0.662,0.02,1.04,0.076,1.645h-1.229v-1.077
			h-3.042v1.776h-1.266c0.075-0.643,0.094-1.21,0.094-2.003V157.342z M310.817,161.198h3.042v-4.554h-3.042V161.198z
			 M310.817,167.302h3.042v-5.046h-3.042V167.302z M323.725,169.229c0,1.247-0.397,1.55-2.079,1.55
			c-0.775,0-1.436-0.038-2.306-0.114c-0.056-0.529-0.151-0.812-0.358-1.286c1.152,0.171,1.7,0.227,2.588,0.227
			c0.775,0,0.946-0.075,0.946-0.491v-9.336h-4.725c-0.775,0-1.512,0.038-2.003,0.114v-1.324c0.491,0.076,1.172,0.114,1.965,0.114
			h4.763v-2.174c0-0.888-0.038-1.663-0.133-2.212h1.455c-0.076,0.643-0.113,1.285-0.113,2.212v2.174h0.605
			c0.774,0,1.322-0.038,1.814-0.114v1.286c-0.586-0.058-1.191-0.076-1.796-0.076h-0.623V169.229z M317.546,161.499
			c1.266,1.512,1.927,2.457,2.815,4.082l-1.039,0.756c-0.813-1.701-1.587-2.873-2.722-4.215L317.546,161.499z"/>
		<path fill="#898989" d="M338.26,163.012c0-0.889,0.02-1.531,0.076-2.344c-0.719,1.229-1.172,1.776-2.457,3.043
			c-0.359-0.643-0.416-0.699-0.794-1.059c1.909-1.758,3.251-3.629,4.252-5.935c0.397-0.926,0.699-1.852,0.813-2.532l1.322,0.472
			c-0.169,0.416-0.169,0.416-0.434,1.097c-0.378,1.001-1.002,2.249-1.569,3.25v10.055c0,0.888,0.038,1.568,0.132,2.249h-1.474
			c0.095-0.643,0.133-1.248,0.133-2.306V163.012z M342.436,160.989c-0.794,0.076-1.304,0.151-1.871,0.283l-0.076-1.36
			c0.171,0.018,0.245,0.018,0.378,0.018c0.416,0,0.946-0.037,1.531-0.094l2.457-0.245c-0.113-0.945-0.208-2.306-0.227-3.307
			c-0.019-0.832-0.057-1.342-0.133-1.72l1.456-0.018c-0.076,0.358-0.096,0.68-0.096,1.246c0,1.04,0.096,2.4,0.247,3.666l4.44-0.454
			c1.077-0.113,1.456-0.169,1.909-0.302l0.114,1.36c-0.17,0-0.246,0-0.341,0c-0.358,0-0.907,0.038-1.549,0.094l-4.422,0.454
			c0.454,2.967,1.191,5.083,2.381,6.879c0.87,1.304,1.814,2.23,2.286,2.23c0.246,0,0.379-0.151,0.53-0.624
			c0.169-0.529,0.302-1.379,0.434-2.494c0.472,0.416,0.756,0.623,1.115,0.812c-0.434,2.74-0.964,3.704-1.985,3.704
			c-1.284,0-3.193-2.06-4.459-4.763c-0.7-1.53-1.21-3.363-1.55-5.632L342.436,160.989z M348.087,154.583
			c1.21,0.946,1.852,1.531,3.043,2.778l-0.908,0.87c-0.774-1.002-1.757-1.965-2.948-2.929L348.087,154.583z"/>
	</g>
</g>
</svg>
