<svg xmlns="http://www.w3.org/2000/svg" viewBox="0 0 2240 1024"><path d="M2080 914c-10 0-18.999-.332-26.999-.999-17.333-1.333-34.333-2-51-2-5.333 0-8.5-.5-9.5-1.5s-1.833-4.167-2.5-9.5l-16-182-16-151-11-93-10-81-18-126a2336.08 2336.08 0 0 0-22-134.001c-.667-3.333-.667-5.5 0-6.5s3-1.833 7-2.5c31.333-6 63-9 95-9h11c5.333.667 8.333 4 9 10 1.333 23.333 2.666 46.333 3.999 69l28 373 14 171 9 98zM854.001 115.001l17.999-.002c4.667 0 7.667.833 9 2.5s2 4.834 2 9.501l8 121 18 251 11 131 8 101 16 174c0 4-.5 6.5-1.5 7.5S939 914 935 914c-24-1.333-48-2.333-72-3-5.333.667-8-1.666-8-6.999-1.333-11.333-2.333-23-3-35-3.333-30-6-60.333-8-91l-16-158-17-143-12-101-13-92c-6-41.333-12.667-82.666-20-123.999l-5-28c-1.333-4.667.334-7.334 5.001-8.001 14-2.667 28-5 42-7s29.333-2.667 46-2zM1860 517.999c12.667 0 20.668 1.167 24.001 3.5s6 9.5 8 21.5c4.667 30 8.667 60 12 90l11 97 21 206c1.333 4.667-.334 7-5.001 7l-78 9c-4 .667-6.667.5-8-.5s-2.333-3.5-3-7.5l-45-230-28-153-4-21c-.667-4 1-6.667 5-8 30.667-7.333 60.667-12 90-14zm-1136.999 0c13.333-.667 21.833.499 25.5 3.499s6.167 10.833 7.5 23.5c6.667 40.667 12 81.334 16 122.001l13 120 8 81 7 65c0 4.667-.5 7.667-1.5 9s-3.5 2.333-7.5 3l-74 7c-4 .667-6.667.5-8-.5s-2.333-3.5-3-7.5l-61-314-16-89c-1.333-4.667.667-7.667 6-9 30.667-7.333 60-12 88-14zM1105 827.998l.001 124.002v4c.667 6-2 8.667-8 8h-24c-17.333 0-34.333.667-51 2-4.667.667-7.5.5-8.5-.5s-1.833-4.167-2.5-9.5l-16-180-8-89-12-136c-.667-5.333-.334-8.833.999-10.5s4.333-2.834 9-3.501c28-2.667 56-3.334 84-2.001 6.667.667 13.667 1.667 21 3 4 1.333 6.5 2.666 7.5 4s1.5 4 1.5 8c1.333 18 2.333 36 3 54l1 60c1.333 54.666 2 109.333 2 164zM2240 834l-.003 117.001v6c0 5.333-2.333 7.666-7 6.999h-36c-14 0-27.667.667-41 2-4 .667-6.5.5-7.5-.5s-1.833-3.833-2.5-8.5l-21-234-11-116-4-59c-.667-4-.334-6.667 1-8s4-2 8-2c16.666-2 33.333-3.167 50-3.5s33.334.5 50.001 2.5c6.667.667 10.834 2.167 12.501 4.5s2.834 6.833 3.501 13.5c1.333 44.667 2.333 89 3 133 .667 23.333 1 47 1 71s.333 49 1 75zm-409-528.999c10 0 18.667.666 26 1.999 4.667.667 7.334 3.334 8.001 8.001l13 139c1.333 6 1.333 9.833 0 11.5s-5 2.5-11 2.5l-34 2c-3.333.667-5.833.667-7.5 0s-2.5-3.667-2.5-9c-4.667-37.333-9.334-75-14.001-113l-4-32c-1.333-6 1-9.333 7-10zM697.999 305c8 0 15.668.665 23.001 1.998 4 .667 6.333 3.334 7 8.001l4 35 10 109c.667 4 .667 6.5 0 7.5s-3 1.5-7 1.5c-12.667.667-25.667 1.334-39 2.001-4 .667-6.5.5-7.5-.5s-1.833-3.5-2.5-7.5l-9-80c-2.667-22.667-5.334-45-8.001-67-1.333-5.333.667-8 6-8 7.333-1.333 15-2 23-2zM1097 404.998l-.001 69.001c.667 5.333.334 8.5-.999 9.5s-4.333 1.5-9 1.5c-12.667 0-25-.667-37-2-4-.667-6.5-1.334-7.5-2.001s-1.167-3-.5-7l-3-85c0-18.667-.333-37.667-1-57-.667-4.667-.5-7.5.5-8.5s3.833-1.5 8.5-1.5c14 0 28 1 42 3 4 0 6.333.667 7 2s1 4 1 8v70zm1136 1.001v69c0 4.667-.5 7.5-1.5 8.5s-3.833 1.5-8.5 1.5l-38-2c-6-.667-8.667-3.667-8-9l-3-143c0-4 .5-6.5 1.5-7.5s3.5-1.5 7.5-1.5c12.667 0 25 .667 37 2 7.333.667 11.333 2 12 4s1 5.667 1 11v67zm-1566.001 54c.667 6 .333 9.832-1 11.499s-5 2.834-11 3.501l-24 6c-4 1.333-6.5 1.5-7.5.5s-1.833-3.167-2.5-6.5l-25-141c-1.333-4.667-1.5-7.667-.5-9s3.833-2.333 8.5-3l35-6c4-.667 6.667-.667 8 0s2 3 2 7c3.333 17.333 6 34.333 8 51l10 80v6zM1731 322.998a993.033 993.033 0 0 1 46.999-6.999c4.667-.667 7.334 1.666 8.001 6.999 2.667 18.667 5.334 37 8.001 55 4 26.667 6.667 53.667 8 81v8c.667 4-1 6.667-5 8l-32 7c-4.667.667-7.334-1.333-8.001-6l-26-149v-4zm-710 108.001c0 16-.666 30.999-1.999 44.999 0 4.667-2.333 7.334-7 8.001l-31 3c-4.667.667-7-1.666-7-6.999a490.4 490.4 0 0 1-4-44.001c-2-27.333-3.667-55-5-83l-2-20c-.667-4 1-6 5-6 13.333-1.333 27-2.333 41-3 3.333 0 5.666.5 6.999 1.5s2 3.5 2 7.5zm1134-16.001a840.81 840.81 0 0 1 0 57.999c.667 4.667.334 7.667-.999 9s-4.333 2-9 2l-28 3c-5.333.667-8-1.666-8-6.999a2905.41 2905.41 0 0 0-5-75.999l-4-70c-.667-4.667 1-7 5-7a807.627 807.627 0 0 1 39.999-3c3.333 0 5.5.5 6.5 1.5s1.5 3.5 1.5 7.5c2 27.333 2.667 54.666 2 81.999zm-1527.002 341c8 9.333 12.83 19.333 14.496 30s.834 21.667-2.499 33c-6 22-17 41-33 57-26 27.333-55.667 49.333-89 66-56.667 30-116.334 50.667-179 62-44.668 9.333-89.668 15.333-135 18-14 .667-28 1-42 1h-30c-4 0-6.668-.667-8-2s-2.334-4-3-8l-7-97-19-191-21-182-12-97-13-93a3849.733 3849.733 0 0 0-25-153 2499.65 2499.65 0 0 0-23-123c-1.334-5.333.333-8.666 5-9.999l139-58c8.667-4 17.334-7 26.001-9 6-1.333 8.667 1 8 7 0 16-.333 32.333-1 49l-1 13c-1.333 58-1.333 116.333 0 175a3965.262 3965.262 0 0 0 7 153.999c2.666 40 5.833 80 9.5 120s7.5 79.667 11.5 119c0 4 .5 6.333 1.5 7s3.833.667 8.5 0c16.667-2.667 33.334-4 50.001-4 53.333 0 105.666 6.333 157 19 44.666 10.667 88.333 25.667 131 45 20.667 10 40 22 58 36 6.667 4.667 12.334 10 17.001 16zm1126.992-9c20.667 17.333 27.999 39.666 21.999 66.999-5.333 22-15.333 41.333-30 58-24 26.667-51.667 48.334-83 65.001-60 33.333-124 56-192 68a1034.852 1034.852 0 0 1-111 15.999c-21.333 2-43.666 2.667-66.999 2h-27c-6 .667-9-2-9-8-2-28-4.333-56-7-84l-16-171-17-149-21-168a1989.485 1989.485 0 0 0-12-87.999l-18-112a2562.817 2562.817 0 0 0-29-159l-1-7c-2-5.333-.333-8.666 5-9.999 24.667-10 49-20.333 73-31s48.333-20.667 73-30c6.667-2.667 13.167-4.667 19.5-6s9.166 1 8.499 7c-2 18.667-3 37.167-3 55.5s-.333 36.5-1 54.5c-1.333 30-1 59.667 1 89v23c0 36 1.333 71.667 4 107 2 47.333 5 94.666 9 141.999 2.667 34 5.667 67.667 9 101a797.426 797.426 0 0 0 6 56.001c0 5.333.667 8.333 2 9s4.333.667 9 0c18-2.667 36-4 54-4 62.667 1.333 124 10.666 184 27.999 40.667 10.667 80 26 118 46 16.667 9.333 32.334 20.333 47.001 33zm-1445.997 176c15.333-8.667 41-27.167 77-55.5s58.333-47.5 67-57.5c-54-24-110-45.333-168-64zm1276.997-108c2.667-2.667 2.333-4.999-1-6.999l-24-10c-42-18-84.333-34-127-48l-6-2c-2-.667-4.333-.334-7 .999l24 173c2.667 0 4.667-.667 6-2 39.333-28 78.333-57.333 117-88 6-5.333 12-11 18-17z"/></svg>