<?xml version="1.0" encoding="utf-8"?>
<!-- Generator: Adobe Illustrator 18.1.1, SVG Export Plug-In . SVG Version: 6.00 Build 0)  -->
<!DOCTYPE svg PUBLIC "-//W3C//DTD SVG 1.1//EN" "http://www.w3.org/Graphics/SVG/1.1/DTD/svg11.dtd">
<svg version="1.1" id="Layer_1" xmlns="http://www.w3.org/2000/svg" xmlns:xlink="http://www.w3.org/1999/xlink" x="0px" y="0px"
	 width="64px" height="64px" viewBox="0 0 64 64" enable-background="new 0 0 64 64" xml:space="preserve">
<g>
	<path d="M31,42c-5.5,0-9.9,4.4-9.9,9.9c0,5.5,4.4,9.9,9.9,9.9c5.5,0,9.9-4.4,9.9-9.9C40.9,46.4,36.5,42,31,42z M29.2,46.9
		c0.9,0,1.6,0.7,1.6,1.6c0,0.9-0.7,1.6-1.6,1.6c-0.9,0-1.6-0.7-1.6-1.6C27.6,47.6,28.3,46.9,29.2,46.9z M32.5,58.3
		c-3,0-5.4-2.4-5.4-5.4h10.8C37.9,55.9,35.5,58.3,32.5,58.3z M36.5,50.5c-0.8,0-1.5-0.7-1.5-1.5c0-0.8,0.7-1.5,1.5-1.5
		c0.8,0,1.5,0.7,1.5,1.5C38,49.8,37.3,50.5,36.5,50.5z"/>
	<path d="M15.5,43.3c-4.4,0-8,3.6-8,8c0,4.4,3.6,8,8,8c4.4,0,8-3.6,8-8C23.5,46.9,19.9,43.3,15.5,43.3z M11.8,46.9
		c0.6,0,1.2,0.5,1.2,1.2c0,0.6-0.5,1.2-1.2,1.2c-0.6,0-1.2-0.5-1.2-1.2C10.6,47.4,11.1,46.9,11.8,46.9z M13.6,56.2
		c-2.4-0.4-4.1-2.8-3.6-5.2l8.9,1.6C18.4,55,16.1,56.6,13.6,56.2z M17.8,50.5c-0.7,0-1.3-0.6-1.3-1.3c0-0.7,0.6-1.3,1.3-1.3
		c0.7,0,1.4,0.6,1.4,1.3C19.1,49.9,18.5,50.5,17.8,50.5z"/>
	<path d="M32.1,29.1c6.4,6.4,13.1,12.3,20.2,17.9c0.1-1.4-0.3-2.9-1.4-4c-1.3-1.3-3.2-1.7-4.9-1.3c0.8-2.4,0.2-5.1-1.7-7.1
		c-2-2-4.9-2.5-7.4-1.6c0.8-2.4,0.2-5.2-1.7-7.1c-1.9-1.9-4.6-2.5-7.1-1.7c0.9-2.5,0.4-5.4-1.6-7.4c-1.9-1.9-4.5-2.5-6.9-1.8
		c0.4-1.6,0-3.4-1.3-4.7c-1.1-1.1-2.6-1.6-4-1.4C19.8,16,25.8,22.7,32.1,29.1z"/>
	<path d="M30.2,31c-9-9-17.2-18.7-24.4-28.7c-2.7,13.5,0.9,28.1,10.7,39c2.1,0.2,4.1,1.1,5.6,2.5c2.2-2.3,5.3-3.8,8.8-3.8
		c6.7,0,12,5.4,12,12c0,1.3-0.2,2.5-0.6,3.6c5.4,0.9,11,0.9,16.5-0.2C48.9,48.1,39.3,40,30.2,31z"/>
</g>
</svg>
