<?xml version="1.0" encoding="utf-8"?>
<!-- Generator: Adobe Illustrator 16.0.0, SVG Export Plug-In . SVG Version: 6.00 Build 0)  -->
<!DOCTYPE svg PUBLIC "-//W3C//DTD SVG 1.1//EN" "http://www.w3.org/Graphics/SVG/1.1/DTD/svg11.dtd">
<svg version="1.1" id="Layer_1" xmlns="http://www.w3.org/2000/svg" xmlns:xlink="http://www.w3.org/1999/xlink" x="0px" y="0px"
	 width="456.8px" height="87.4px" viewBox="0 0 456.8 87.4" style="enable-background:new 0 0 456.8 87.4;" xml:space="preserve">
<g>
	<polygon style="fill:#D41F26;" points="133.8,29.4 145.3,29.4 145.3,60.6 155.9,60.6 155.9,29.4 167.4,29.4 167.4,20.1 133.8,20.1
			"/>
	<polygon style="fill:#D41F26;" points="180.2,44.1 198.8,44.1 198.8,35.4 180.2,35.4 180.2,29.4 200.4,29.4 200.4,20.1 169.6,20.1
		169.6,60.6 200.9,60.6 200.9,51.3 180.2,51.3 	"/>
	<path style="fill:#D41F26;" d="M230.2,44.6c-0.3,2.3-1.1,4.2-2.4,5.6c-1.2,1.3-2.9,2-5.2,2c-1.7,0-3.1-0.3-4.3-1
		c-1.2-0.6-2.1-1.5-2.8-2.6c-0.7-1.1-1.3-2.4-1.6-3.7c-0.4-1.4-0.5-2.9-0.5-4.4c0-1.6,0.2-3.1,0.5-4.6c0.3-1.4,0.9-2.7,1.6-3.8
		c0.7-1.1,1.7-1.9,2.8-2.6c1.1-0.6,2.6-1,4.3-1c0.9,0,1.8,0.2,2.6,0.4c0.8,0.3,1.6,0.7,2.2,1.2c0.7,0.5,1.2,1.1,1.6,1.8
		c0.4,0.7,0.7,1.4,0.8,2.2l0.1,1h10.4l-0.1-1.2c-0.3-2.4-0.9-4.5-2-6.3c-1-1.8-2.4-3.4-4-4.6c-1.6-1.2-3.4-2.2-5.4-2.8
		c-2-0.6-4.1-1-6.3-1c-3.1,0-5.9,0.6-8.4,1.7c-2.5,1.1-4.6,2.6-6.3,4.6c-1.7,1.9-3,4.2-3.9,6.8c-0.9,2.6-1.3,5.4-1.3,8.3
		c0,2.9,0.5,5.6,1.3,8.2c0.9,2.5,2.2,4.8,3.9,6.7c1.7,1.9,3.8,3.4,6.3,4.5c2.5,1.1,5.3,1.6,8.4,1.6c2.5,0,4.8-0.4,6.9-1.1
		c2.1-0.8,4-1.9,5.5-3.3c1.6-1.4,2.8-3.2,3.8-5.3c0.9-2,1.5-4.3,1.8-6.9l0.1-1.2h-10.4L230.2,44.6z"/>
	<polygon style="fill:#D41F26;" points="267.9,34.8 254.7,34.8 254.7,20.1 244,20.1 244,60.6 254.7,60.6 254.7,44.1 267.9,44.1
		267.9,60.6 278.6,60.6 278.6,20.1 267.9,20.1 	"/>
	<rect x="285.3" y="21.2" style="fill:#D41F26;" width="3.6" height="38.3"/>
	<polygon style="fill:#D41F26;" points="323.4,53.6 323.3,53.6 301,21.2 296.9,21.2 296.9,59.5 300.5,59.5 300.5,27.1 300.6,27.1
		322.9,59.5 327,59.5 327,21.2 323.4,21.2 	"/>
	<path style="fill:#D41F26;" d="M344.2,20.1l-15.3,40.5h10.9l3-8.5h12.7l2.9,8.5h11.1l-15.1-40.5H344.2z M345.7,43.6l3.4-9.7
		l3.3,9.7H345.7z"/>
	<path style="fill:#D41F26;" d="M397,38.6c-1.3-0.9-2.7-1.5-4.1-1.9c-1.3-0.4-2.3-0.7-3-0.8c-2.4-0.6-4.3-1.1-5.8-1.5
		c-1.4-0.4-2.5-0.7-3.3-1.1c-0.8-0.4-1.1-0.7-1.2-0.9c-0.2-0.3-0.3-0.7-0.3-1.2c0-0.6,0.1-1.1,0.3-1.4c0.3-0.4,0.6-0.7,1-1
		c0.4-0.3,0.9-0.5,1.5-0.6c0.6-0.1,1.2-0.2,1.8-0.2c1,0,1.8,0.1,2.6,0.2c0.7,0.2,1.4,0.4,2,0.8c0.5,0.3,0.9,0.8,1.3,1.4
		c0.3,0.6,0.5,1.4,0.6,2.4l0.1,1h10.3v-1.1c0-2.4-0.5-4.5-1.4-6.2c-0.9-1.7-2.2-3.1-3.7-4.2c-1.5-1.1-3.3-1.9-5.3-2.3
		c-1.9-0.5-3.9-0.7-6-0.7c-1.8,0-3.6,0.2-5.4,0.7c-1.8,0.5-3.5,1.3-5,2.3c-1.5,1.1-2.7,2.4-3.6,4c-0.9,1.6-1.4,3.5-1.4,5.7
		c0,1.9,0.4,3.6,1.1,5c0.7,1.4,1.7,2.5,2.9,3.4c1.2,0.9,2.5,1.6,3.9,2.2c1.4,0.5,2.8,1,4.3,1.3c1.4,0.4,2.8,0.8,4.2,1.1
		c1.3,0.3,2.5,0.7,3.5,1.1c0.9,0.4,1.7,0.8,2.2,1.4c0.4,0.4,0.7,1,0.7,1.7c0,0.7-0.2,1.3-0.5,1.7c-0.4,0.5-0.9,0.9-1.5,1.2
		c-0.6,0.3-1.4,0.5-2.1,0.6c-0.8,0.1-1.6,0.2-2.3,0.2c-1,0-2-0.1-2.9-0.4c-0.9-0.2-1.7-0.6-2.3-1.1c-0.6-0.5-1.1-1-1.5-1.8
		c-0.4-0.7-0.6-1.7-0.6-2.8v-1.1h-10.4l0,1.1c0,2.5,0.4,4.8,1.4,6.6c1,1.9,2.3,3.4,4,4.6c1.6,1.2,3.5,2.1,5.6,2.6
		c2.1,0.5,4.2,0.8,6.4,0.8c2.7,0,5.1-0.3,7.2-1c2.1-0.6,3.9-1.6,5.4-2.8c1.5-1.2,2.6-2.6,3.3-4.3c0.7-1.6,1.1-3.4,1.1-5.3
		c0-2.4-0.5-4.3-1.6-5.9C399.6,40.7,398.4,39.5,397,38.6z"/>
	<rect x="404.9" y="20.1" style="fill:#D41F26;" width="10.6" height="40.5"/>
	<path style="fill:#D41F26;" d="M441.7,20.1h-10.2l-15.3,40.5h10.9l3-8.5h12.7l2.9,8.5h11.2L441.7,20.1z M433.1,43.6l3.4-9.7
		l3.3,9.7H433.1z"/>
</g>
<g>
	<g>
		<g>
			<path style="fill:#D41F26;" d="M47.2,85.2c-0.7,1.2-1.8,1.2-2.4,0L33.4,65.6c-0.7-1.2-1.2-3.2-1.2-4.6V45.5c0-1.3-0.8-3.1-1.9-4
				L0.6,16.6c-1-0.9-0.8-1.6,0.6-1.6h48.5c1.3,0,3.4,0.5,4.6,1.2l9.3,5.4c1.2,0.7,1.6,2.2,0.9,3.3l-3.7,6.3
				c-0.7,1.2-2.2,1.6-3.3,0.9L51,28.5c-1.2-0.7-3.2-1.2-4.6-1.2H34.7c-1.3,0-1.6,0.7-0.6,1.6l8.4,7c1,0.9,1.9,2.7,1.9,4v17.9
				c0,1.3,0.4,3.1,0.8,3.8c0.4,0.8,1.3,0.4,2-0.7l34.6-60c0.7-1.2,1.8-1.2,2.4,0l39.3,68.1c0.7,1.2,0.3,1.6-0.9,0.9L77.5,43.8
				c-1.2-0.7-1.6-2.2-0.9-3.3l3.7-6.3c0.7-1.2,2.2-1.6,3.3-0.9l5.7,3.3c1.2,0.7,1.6,0.3,0.9-0.9l-6-10.3c-0.7-1.2-1.8-1.2-2.4,0
				L47.2,85.2z"/>
		</g>
	</g>
</g>
</svg>
