<?xml version="1.0" encoding="utf-8"?>
<!-- Generator: Adobe Illustrator 18.1.1, SVG Export Plug-In . SVG Version: 6.00 Build 0)  -->
<!DOCTYPE svg PUBLIC "-//W3C//DTD SVG 1.1//EN" "http://www.w3.org/Graphics/SVG/1.1/DTD/svg11.dtd">
<svg version="1.1" id="Layer_1" xmlns="http://www.w3.org/2000/svg" xmlns:xlink="http://www.w3.org/1999/xlink" x="0px" y="0px"
	 width="64px" height="64px" viewBox="0 0 64 64" enable-background="new 0 0 64 64" xml:space="preserve">
<path fill="#010101" d="M20,8.7c-17,3-22.6,22.2-9.1,30.8c0.8,0.4,0.8,0.4-0.3,3.7l-1,2.9l3.4-1.8l3.4-1.8l1.8,0.4
	c1.9,0.4,4.3,0.8,6,0.8h1l-0.3-1.2C22.1,32.7,31.2,23,43.1,23h1.6l-0.3-1.1C41.8,12.7,30.8,6.8,20,8.7z M18.5,17.3
	c1.8,1.2,1.9,3.8,0.2,4.9c-2.8,1.8-6.1-1.3-4.2-4.2C15.2,16.8,17.3,16.5,18.5,17.3z M32.9,17.3c2.9,2,0.8,6.5-2.6,5.3
	c-2.4-0.9-2.7-4.2-0.4-5.4C30.8,16.7,32.1,16.7,32.9,17.3z M39.4,24.5c-8.3,1.6-14.2,7.9-13.8,15.2c0.4,9.8,11.9,16.5,22.9,13.5
	l1.3-0.3l2.7,1.5c1.5,0.8,2.8,1.5,2.8,1.3c0-0.1-0.2-1.1-0.7-2.4c-0.9-2.7-0.9-2.5,0.2-3.4C68.1,40.4,56.5,21.4,39.4,24.5z
	 M39.1,32.3c0.8,0.4,1.1,1.7,0.8,2.6c-0.7,1.9-3.5,2-4.3,0.2C34.7,33.1,37.1,31.1,39.1,32.3z M50.8,32.6c1.1,1.1,1,3-0.3,3.7
	c-2,1-4.3-1-3.1-3C47.9,31.9,49.8,31.6,50.8,32.6z"/>
</svg>
