<svg xmlns="http://www.w3.org/2000/svg" viewBox="0 0 64 64" enable-background="new 0 0 64 64"><path fill="#010101" d="M21.3 11.3C6.2 14 1.2 31 13.2 38.7c.7.4.7.4-.3 3.3l-.9 2.6 3-1.6 3-1.6 1.6.4c1.7.4 3.8.7 5.3.7h.9l-.3-1.1C23.2 32.6 31.3 24 41.9 24h1.4l-.3-1c-2.3-8.2-12.1-13.4-21.7-11.7zM20 18.9c1.6 1.1 1.7 3.4.2 4.4-2.5 1.6-5.4-1.2-3.7-3.7.6-1.1 2.4-1.4 3.5-.7zm12.8 0c2.6 1.8.7 5.8-2.3 4.7-2.1-.8-2.4-3.7-.4-4.8.8-.4 2-.4 2.7.1zm5.8 6.4c-7.4 1.4-12.6 7-12.3 13.5.4 8.7 10.6 14.7 20.4 12l1.2-.3 2.4 1.3c1.3.7 2.5 1.3 2.5 1.2 0-.1-.2-1-.6-2.1-.8-2.4-.8-2.2.2-3 11.7-8.4 1.4-25.3-13.8-22.6zm-.3 7c.7.4 1 1.5.7 2.3-.6 1.7-3.1 1.8-3.8.2-.8-1.8 1.3-3.6 3.1-2.5zm10.4.2c1 1 .9 2.7-.3 3.3-1.8.9-3.8-.9-2.8-2.7.5-1.2 2.2-1.5 3.1-.6z"/></svg>